<svg width="48" height="48" viewBox="0 0 48 48" fill="none" xmlns="http://www.w3.org/2000/svg">
<path d="M0 48H4.8C6.12 48 7.2 46.8 7.2 45.3333V21.3333C7.2 19.8667 6.12 18.6667 4.8 18.6667H0V48ZM47.592 29.0133C47.856 28.3467 48 27.6267 48 26.88V24C48 21.0667 45.84 18.6667 43.2 18.6667H30L32.208 6.26667C32.328 5.68 32.256 5.04 32.016 4.50667C31.464 3.30667 30.768 2.21333 29.904 1.25333L28.8 0L13.416 17.0933C12.504 18.1067 12 19.4667 12 20.88V41.7867C12 45.2 14.52 48 17.616 48H37.08C38.76 48 40.344 47.0133 41.208 45.4133L47.592 29.0133Z" fill="#5228EE"/>
</svg>
